<?xml version="1.0" encoding="UTF-8" standalone="no"?>
<svg
   xmlns:dc="http://purl.org/dc/elements/1.1/"
   xmlns:cc="http://creativecommons.org/ns#"
   xmlns:rdf="http://www.w3.org/1999/02/22-rdf-syntax-ns#"
   xmlns:svg="http://www.w3.org/2000/svg"
   xmlns="http://www.w3.org/2000/svg"
   version="1.1"
   id="svg2"
   height="3543.3069"
   width="7086.6138">
  <defs
     id="defs4" />
  <metadata
     id="metadata7">
    <rdf:RDF>
      <cc:Work
         rdf:about="">
        <dc:format>image/svg+xml</dc:format>
        <dc:type
           rdf:resource="http://purl.org/dc/dcmitype/StillImage" />
        <dc:title></dc:title>
      </cc:Work>
    </rdf:RDF>
  </metadata>
  <g
     transform="translate(0,2490.9448)"
     id="layer1">
    <path
       id="path3045"
       d="m 160.52556,266.04799 0,-354.330798 354.33068,0 0,354.330798 -354.33068,0"
       style="fill:#000000;stroke:#000000;stroke-width:0;stroke-linecap:butt;stroke-linejoin:miter;stroke-miterlimit:4;stroke-opacity:1;stroke-dasharray:none" />
    <path
       id="path3049"
       d="m 6.0000005e-5,-364.96071 v -354.3307 H 531.49606 v 177.1653 h -354.3307 v 177.1654 z"
       style="fill:#000000;stroke:#000000;stroke-width:0;stroke-linecap:butt;stroke-linejoin:miter;stroke-miterlimit:4;stroke-dasharray:none;stroke-opacity:1" />
    <path
       id="path3051"
       d="m 1200.1575,-888.2836 v 354.3307 h 531.496 v -177.1653 h -354.3307 v -177.1654 z"
       style="fill:#000000;stroke:#000000;stroke-width:0;stroke-linecap:butt;stroke-linejoin:miter;stroke-miterlimit:4;stroke-dasharray:none;stroke-opacity:1" />
    <path
       id="path3055"
       d="m 2340.5077,-767.74276 177.1654,0 0,177.1654 -177.1654,0 0,177.1653 -354.3307,0 0,-177.1653 177.1653,0 0,-177.1654 z"
       style="fill:#000000;stroke:#000000;stroke-width:0;stroke-linecap:butt;stroke-linejoin:miter;stroke-miterlimit:4;stroke-opacity:1;stroke-dasharray:none" />
    <path
       id="path3057"
       d="M 2794.6457,-711.1182 H 2971.811 V -2.4568 h -177.1653 z"
       style="fill:#000000;stroke:#000000;stroke-width:0;stroke-linecap:butt;stroke-linejoin:miter;stroke-miterlimit:4;stroke-dasharray:none;stroke-opacity:1" />
    <path
       transform="translate(0,-2490.9448)"
       id="path3059"
       d="m 1417.3228,2834.6455 531.4961,0 c 0,0 0,354.3307 0,354.3307 l -177.1654,0 0,-177.1654 -354.3307,0 z"
       style="fill:#000000;stroke:#000000;stroke-width:0;stroke-linecap:butt;stroke-linejoin:miter;stroke-opacity:1;stroke-miterlimit:4;stroke-dasharray:none" />
    <path
       id="path3061"
       d="m 4118.8495,-557.78708 531.4961,0 0,-354.3307 -177.1654,0 0,177.1654 -354.3307,0 0,177.1653 z"
       style="fill:#000000;stroke:#000000;stroke-width:0;stroke-linecap:butt;stroke-linejoin:miter;stroke-miterlimit:4;stroke-opacity:1;stroke-dasharray:none" />
    <path
       style="fill:#000000;stroke:#000000;stroke-width:0;stroke-linecap:butt;stroke-linejoin:miter;stroke-miterlimit:4;stroke-dasharray:none;stroke-opacity:1"
       d="m 3543.3071,-542.12611 v -354.3308 h 354.3307 v 354.3308 h -354.3307"
       id="path3831" />
    <path
       id="path3833"
       d="m 3318.8322,990.37037 0,-354.3308 354.3306,0 0,354.3308 -354.3306,0"
       style="fill:#000000;stroke:#000000;stroke-width:0;stroke-linecap:butt;stroke-linejoin:miter;stroke-miterlimit:4;stroke-opacity:1;stroke-dasharray:none" />
    <path
       style="fill:#000000;stroke:#000000;stroke-width:0;stroke-linecap:butt;stroke-linejoin:miter;stroke-miterlimit:4;stroke-opacity:1;stroke-dasharray:none"
       d="m 924.0005,866.38726 0,-354.3308 354.3307,0 0,354.3308 -354.3307,0"
       id="path3835" />
    <path
       style="fill:#000000;stroke:#000000;stroke-width:0;stroke-linecap:butt;stroke-linejoin:miter;stroke-miterlimit:4;stroke-dasharray:none;stroke-opacity:1"
       d="m 1062.9921,-187.79535 h 531.4961 c 0,0 0,354.3307 0,354.3307 H 1417.3228 V -10.630045 h -354.3307 z"
       id="path3837" />
    <path
       id="path3839"
       d="m 4429.1338,-10.630045 h 531.4961 c 0,0 0,354.330695 0,354.330695 h -177.1654 v -177.1654 h -354.3307 z"
       style="fill:#000000;stroke:#000000;stroke-width:0;stroke-linecap:butt;stroke-linejoin:miter;stroke-miterlimit:4;stroke-dasharray:none;stroke-opacity:1" />
    <path
       style="fill:#000000;stroke:#000000;stroke-width:0;stroke-linecap:butt;stroke-linejoin:miter;stroke-miterlimit:4;stroke-opacity:1;stroke-dasharray:none"
       d="m 2100.8614,384.48451 0,-177.1654 177.1654,0 0,177.1654 177.1653,0 0,354.3307 -177.1653,0 0,-177.1653 -177.1654,0 z"
       id="path3841" />
    <path
       id="path3843"
       d="m 2657.4803,520.86597 v -177.1654 h 177.1654 v 177.1654 h 177.1653 v 354.3307 h -177.1653 v -177.1653 h -177.1654 z"
       style="fill:#000000;stroke:#000000;stroke-width:0;stroke-linecap:butt;stroke-linejoin:miter;stroke-miterlimit:4;stroke-dasharray:none;stroke-opacity:1" />
    <path
       style="fill:#000000;stroke:#000000;stroke-width:0;stroke-linecap:butt;stroke-linejoin:miter;stroke-miterlimit:4;stroke-opacity:1;stroke-dasharray:none"
       d="m 4097.642,580.24732 0,-177.1654 177.1654,0 0,177.1654 177.1653,0 0,354.3307 -177.1653,0 0,-177.1653 -177.1654,0 z"
       id="path3845" />
    <path
       style="fill:#000000;stroke:#000000;stroke-width:0;stroke-linecap:butt;stroke-linejoin:miter;stroke-miterlimit:4;stroke-dasharray:none;stroke-opacity:1"
       d="m 5669.2914,-10.630055 h 177.1653 V 698.03137 h -177.1653 z"
       id="path3847" />
    <path
       id="path3849"
       d="m 628.20399,-613.2368 h 177.1653 V 95.4246 h -177.1653 z"
       style="fill:#000000;stroke:#000000;stroke-width:0;stroke-linecap:butt;stroke-linejoin:miter;stroke-miterlimit:4;stroke-dasharray:none;stroke-opacity:1" />
    <path
       style="fill:#000000;stroke:#000000;stroke-width:0;stroke-linecap:butt;stroke-linejoin:miter;stroke-miterlimit:4;stroke-dasharray:none;stroke-opacity:1"
       d="m 5137.7953,-187.79539 v 531.4961 h 354.3307 v -177.1654 h -177.1654 v -354.3307 z"
       id="path3851" />
    <path
       id="path3853"
       d="m 5172.5429,-945.92929 177.1654,0 0,177.16539 -177.1654,0 0,177.1653 -354.3307,0 0,-177.1653 177.1653,0 0,-177.16539 z"
       style="fill:#000000;stroke:#000000;stroke-width:0;stroke-linecap:butt;stroke-linejoin:miter;stroke-miterlimit:4;stroke-opacity:1;stroke-dasharray:none" />
    <path
       id="path3855"
       d="m 5492.126,698.03143 v 177.1653 h -708.6613 v -177.1653 z"
       style="fill:#000000;stroke:#000000;stroke-width:0;stroke-linecap:butt;stroke-linejoin:miter;stroke-miterlimit:4;stroke-dasharray:none;stroke-opacity:1" />
    <path
       style="fill:#000000;stroke:#000000;stroke-width:0;stroke-linecap:butt;stroke-linejoin:miter;stroke-miterlimit:4;stroke-opacity:1;stroke-dasharray:none"
       d="m 3013.2791,140.59684 0,-531.4961 c 0,0 354.3307,0 354.3307,0 l 0,177.1654 -177.1654,0 0,354.3307 z"
       id="path3857" />
    <path
       id="path3859"
       d="m 3696.8177,4.215251 -177.1654,0 0,-177.165401 177.1654,0 0,-177.1653 354.3307,0 0,177.1653 -177.1653,0 0,177.165401 z"
       style="fill:#000000;stroke:#000000;stroke-width:0;stroke-linecap:butt;stroke-linejoin:miter;stroke-miterlimit:4;stroke-opacity:1;stroke-dasharray:none" />
  </g>
</svg>
